_________________________  Visit us at _________________________
  
http://p2pdl.com  ____________________________  http://p2pdl.com


The Company You Keep 2012 BRRip 720p x264 AAC - PRiSTiNE

Genre: Thriller
Plot: A former Weather Underground activist goes on the 
run from a journalist who has discovered his identity.
Director: Robert Redford
Stars: Robert Redford, Nick Nolte, Stanley Tucci
Rated: Rated R for language

Info: 
http://www.imdb.com/title/tt1381404/


General
Complete name                  : The Company You Keep 2012 BRRip 720p x264 AAC - PRiSTiNE.mp4
Format                         : MPEG-4
Format profile                 : Base Media
File size                      : 699 MiB
Duration                       : 2h 4mn
Overall bit rate mode          : Variable
Overall bit rate               : 783 Kbps

Video
Format                         : AVC
Format profile                 : High 10@L4.1
Bit rate                       : 703 Kbps
Width                          : 1 280 pixels
Height                         : 544 pixels
Display aspect ratio           : 2.35:1
Frame rate mode                : Constant
Frame rate                     : 24.000 fps
Bit depth                      : 10 bits
Stream size                    : 627 MiB (90%)
Writing library                : x264 core 130 r2273 b3065e6

Audio
Format                         : AAC
Bit rate                       : 79.8 Kbps
Channel(s)                     : 2 channels
Channel positions              : Front: L R
Sampling rate                  : 48.0 KHz / 24.0 KHz
Stream size                    : 69.4 MiB (10%)
Language                       : English

Subtitle                       : No
Source                         : 720p.BluRay.x264.DTS-PTpOWeR (Thanks)

Screens:
 
http://www.ultraimg.com/images/SJ8xv.jpg 
http://www.ultraimg.com/images/B813k.jpg 
http://www.ultraimg.com/images/zcJ1C.jpg 
http://www.ultraimg.com/images/Vr3eF.jpg 
http://www.ultraimg.com/images/ICLc.jpg

----------------------------------------------------------------------------------------------------


Encoded using revolutionary 10bit encoding, which enables us to provide you more crispier 
and sharper images at small sizes, just make sure you follow our instructions without a fault.
Recommend to you to use latest version of VLC player. Install K-Lite Codec Pack or shark007 codecs
in case of any kind of problem in playback (For non-VLC Media Player users). Alternatively, install
Core AVC codecs, the fastest decoder that there is coupled with Community Center Codec Pack and play
on Windows Media Player Classic. Check sample to be sure.
Enjoy!

Encoder Notes:Looking For Early Access To Anything You Can Provide DVDScr, R5, DVDR, BluRay, Direct
Audio, Music Releases and Seedboxes. We require dedicated servers, so as to do more 
and fast releases of movies.
If You Got anything to offer please contact us at "prg@hush.com".

Face book Fan Page:   
http://www.fb.me/p2pdl